<svg width="18" height="20" viewBox="0 0 18 20" fill="none" xmlns="http://www.w3.org/2000/svg">
<path d="M9 16C8.06667 16 7.175 16.1458 6.325 16.4375C5.475 16.7292 4.7 17.1667 4 17.75V18H14V17.75C13.3 17.1667 12.525 16.7292 11.675 16.4375C10.825 16.1458 9.93333 16 9 16ZM2 16.85C2.9 15.9667 3.94583 15.2708 5.1375 14.7625C6.32917 14.2542 7.61667 14 9 14C10.3833 14 11.6708 14.2542 12.8625 14.7625C14.0542 15.2708 15.1 15.9667 16 16.85V4H2V16.85ZM9 12C8.03333 12 7.20833 11.6583 6.525 10.975C5.84167 10.2917 5.5 9.46667 5.5 8.5C5.5 7.53333 5.84167 6.70833 6.525 6.025C7.20833 5.34167 8.03333 5 9 5C9.96667 5 10.7917 5.34167 11.475 6.025C12.1583 6.70833 12.5 7.53333 12.5 8.5C12.5 9.46667 12.1583 10.2917 11.475 10.975C10.7917 11.6583 9.96667 12 9 12ZM9 10C9.41667 10 9.77083 9.85417 10.0625 9.5625C10.3542 9.27083 10.5 8.91667 10.5 8.5C10.5 8.08333 10.3542 7.72917 10.0625 7.4375C9.77083 7.14583 9.41667 7 9 7C8.58333 7 8.22917 7.14583 7.9375 7.4375C7.64583 7.72917 7.5 8.08333 7.5 8.5C7.5 8.91667 7.64583 9.27083 7.9375 9.5625C8.22917 9.85417 8.58333 10 9 10ZM2 20C1.45 20 0.979167 19.8042 0.5875 19.4125C0.195833 19.0208 0 18.55 0 18V4C0 3.45 0.195833 2.97917 0.5875 2.5875C0.979167 2.19583 1.45 2 2 2H3V0H5V2H13V0H15V2H16C16.55 2 17.0208 2.19583 17.4125 2.5875C17.8042 2.97917 18 3.45 18 4V18C18 18.55 17.8042 19.0208 17.4125 19.4125C17.0208 19.8042 16.55 20 16 20H2ZM9 18C9.93333 18 10.825 18 11.675 18C12.525 18 13.3 18 14 18H4C4.7 18 5.475 18 6.325 18C7.175 18 8.06667 18 9 18Z" fill="#0050CB"/>
</svg>
